# xmcd
#
# Track frame offsets:
# 150
# 19390
# 49879
# 72260
# 103725
# 125669
# 146630
# 167748
# 188089
# 223813
# 247040
#
# Disc length: 3576 seconds
#
# Revision: 1
# Processed by: cddbd v1.4PL0 Copyright (c) Steve Scherf et al.
# Submitted via: Easy CD Ripper 1.45
#
DISCID=ad0df60b
DTITLE=Dixie Chicks - Maximum Dixie Chicks
DYEAR=2001
DGENRE=Country
TTITLE0=In a Pinon Shell
TTITLE1=Dixie Chicks - Get up and feed the chickens
TTITLE2=Dixie Chicks - Crystal Clear
TTITLE3=Dixie Chicks - Nightingales of the Prairie
TTITLE4=Dixie Chicks - Domestic Science Club
TTITLE5=Dixie Chicks - Honky Tonk Dream
TTITLE6=Dixie Chicks - Diva Chick
TTITLE7=Dixie Chicks - The Rooster Crows-the hen deliv
TTITLE8=Dixie Chicks - The Glam Squad
TTITLE9=Dixie Chicks - Runaway Chicks
TTITLE10=Dixie Chicks - Fly up to meet it
EXTD=
EXTT0=
EXTT1=
EXTT2=
EXTT3=
EXTT4=
EXTT5=
EXTT6=
EXTT7=
EXTT8=
EXTT9=
EXTT10=
PLAYORDER=
